<?xml version="1.0" encoding="UTF-8"?>
<svg id="Layer_2" data-name="Layer 2" xmlns="http://www.w3.org/2000/svg" viewBox="0 0 1079.04 278.6">
  <defs>
    <style>
      .cls-1 {
        fill: #f3e8cc;
      }
    </style>
  </defs>
  <g id="Layer_1-2" data-name="Layer 1">
    <path class="cls-1" d="M1077.76,121.84c-1.43-1.42-2.85-2.14-4.28-2.14-.96,0-1.43.48-1.43,1.42-16.63,31.83-30.99,57.25-43.11,76.24-12.11,19-25.06,34.68-38.83,47.03-7.6,7.13-14.14,12.24-19.59,15.32-5.47,3.1-9.87,4.63-13.18,4.63-5.23,0-7.84-4.28-7.84-12.83,0-8.07,1.89-18.28,5.7-30.64,3.8-12.35,8.19-25.29,13.18-38.83,4.99-13.54,9.98-25.88,14.96-37.05,4.99-11.16,8.43-19.35,10.33-24.58,6.17-15.2,9.26-28.02,9.26-38.48,0-17.1-9.03-25.65-27.08-25.65-11.4,0-23.99,6.3-37.76,18.88-13.78,12.59-26.84,27.68-39.19,45.25,3.32-9.5,5.93-18.05,7.84-25.65,1.89-7.59,2.85-14.01,2.85-19.24,0-9.98-3.33-16.39-9.97-19.24-6.18-2.37-11.65-3.56-16.39-3.56-10.45,0-19.72,3.81-27.79,11.4-8.08,7.6-15.21,16.99-21.37,28.14-5.59,10.1-10.76,19.68-15.57,28.8-.43.35-.85.84-1.28,1.48-3.33,6.18-8.19,15.44-14.61,27.79-6.41,12.36-13.78,25.18-22.09,38.48-8.32,13.3-17.1,24.47-26.36,33.49-9.26,9.03-18.65,13.54-28.14,13.54-6.18,0-11.4-1.89-15.68-5.7,6.65-8.55,13.06-18.05,19.24-28.5,6.17-10.44,12.11-21.61,17.81-33.49,4.74-9.5,9.14-21.02,13.18-34.56,4.03-13.54,6.06-26.48,6.06-38.83s-2.49-21.84-7.48-29.93c-4.99-8.07-14.37-12.11-28.14-12.11-16.15,0-33.97,8.44-53.44,25.29-17.67,15.3-32.58,35.98-44.78,62.02-12.83,23.42-23.92,42.65-33.24,57.68-11.65,18.77-24.35,34.32-38.12,46.67-13.78,12.36-24.47,18.53-32.07,18.53-6.18,0-9.26-4.74-9.26-14.25,0-15.68,8.07-42.75,24.23-81.23,8.07-19.47,14.72-36.69,19.95-51.66,5.22-14.96,7.84-27.19,7.84-36.7,0-15.2-7.84-22.8-23.51-22.8-5.23,0-11.4.36-18.53,1.07-7.13.71-15.92,2.03-26.36,3.92,2.37-10.44,3.56-20.9,3.56-31.35,0-8.07-1.07-15.07-3.21-21.02-2.14-5.93-6.06-8.91-11.76-8.91-7.6,0-13.3,2.85-17.1,8.55-3.81,5.7-5.7,12.59-5.7,20.66,0,9.03,2.01,17.94,6.06,26.72,4.03,8.79,9.62,14.37,16.74,16.74-.48,1.9-3.21,7.96-8.19,18.17-4.99,10.22-11.17,22.44-18.53,36.69-7.37,14.25-15.09,28.62-23.16,43.11-6.28,11.26-12.4,21.42-18.38,30.51-8.59,12.11-18.12,23.45-28.63,33.97-3.33,3.33-9.03,8.19-17.1,14.61-8.08,6.41-14.73,9.62-19.95,9.62-4.28,0-6.89-2.25-7.84-6.77-.96-4.51-1.43-8.66-1.43-12.47v-2.85c0-11.87,2.73-25.17,8.19-39.9,5.46-14.72,11.04-27.54,16.74-38.48,7.59-14.72,15.07-29.68,22.44-44.89,7.36-15.2,15.07-29.68,23.16-43.46-7.6,3.33-15.56,6.3-23.87,8.91-8.32,2.62-16.51,4.88-24.58,6.77l-30.64,64.13c-3.33,6.66-8.32,16.28-14.96,28.86-6.66,12.59-14.02,25.42-22.09,38.48-8.08,13.07-16.39,24.11-24.94,33.13-8.55,9.03-16.15,13.54-22.8,13.54-6.18,0-10.81-2.85-13.89-8.55-3.1-5.7-4.63-13.06-4.63-22.09,0-14.25,3.44-31.23,10.33-50.94,6.88-19.71,16.74-39.07,29.57-58.07,12.83-18.99,28.38-34.67,46.67-47.03,18.28-12.35,39.07-18.53,62.35-18.53,3.32,0,8.43-.47,15.32-1.43,6.88-.95,10.33-1.89,10.33-2.85s-4.75-2.14-14.25-3.56c-3.81-.95-7.73-1.43-11.76-1.43h-11.76c-28.98,0-57.12,8.44-84.43,25.29-27.32,16.87-48.57,41.21-63.77,73.03-2.85,6.01-5.8,13.4-8.86,22.15-9.26,16.67-19.7,32.56-31.39,47.68-12.11,15.68-26.01,28.03-41.68,37.05-9.03,5.23-19.84,9.15-32.42,11.76-12.59,2.62-24.58,3.68-35.98,3.21,15.2-4.74,28.14-12.22,38.83-22.44,10.69-10.21,19.12-24.1,25.29-41.68,1.89-5.22,3.08-10.69,3.56-16.39.47-5.7.71-11.4.71-17.1,0-15.2-1.55-30.16-4.63-44.89-3.1-14.72-6.06-27.79-8.91-39.19-.48-2.37-.84-4.63-1.07-6.77-.24-2.14-.36-4.15-.36-6.06,0-12.35,3.56-22.09,10.69-29.21,7.13-7.13,14.96-9.5,23.51-7.13,2.37.48,4.51.24,6.41-.71,1.89-.95,2.85-2.37,2.85-4.27,0-2.85-3.1-5.7-9.26-8.55-6.18-2.37-12.11-3.56-17.81-3.56-11.88,0-23.16,4.75-33.85,14.25-10.69,9.51-20.55,21.98-29.57,37.41-9.03,15.44-17.81,31.71-26.36,48.81-4.27,8.55-8.91,17.35-13.89,26.36-4.99,9.03-9.62,17.35-13.89,24.94-6.18,1.9-12.36,7.96-18.53,18.17-6.17,10.22-9.26,21.5-9.26,33.84,0,13.3,5.59,25.42,16.74,36.34,11.16,10.92,31.94,16.39,62.35,16.39,25.17,0,47.03-5.23,65.55-15.68,17.1-9.5,31.82-21.73,44.18-36.69,6.86-8.31,13.34-17.08,19.47-26.27-2.05,9.66-3.09,19.01-3.09,28.05,0,13.3,2.96,24.47,8.91,33.49,5.93,9.03,16.98,13.54,33.13,13.54,9.98,0,20.06-4.63,30.28-13.89,10.21-9.26,19.47-20.06,27.79-32.42,8.3-12.35,14.13-22.8,17.46-31.35-1.43,4.75-2.74,10.33-3.92,16.74-1.19,6.41-1.78,12.95-1.78,19.59,0,10.45,2.14,19.84,6.41,28.15,4.27,8.32,11.63,12.47,22.09,12.47s21.84-4.28,32.78-12.83c10.92-8.55,20.18-16.62,27.79-24.23,12.35-13.77,23.04-28.26,32.06-43.46,0,0,0-.01.01-.02,5.53-8.68,11.22-18.16,17.08-28.48,9.98-17.57,19.12-34.79,27.43-51.66,8.31-16.86,14.36-30.04,18.17-39.55,9.02-2.37,16.14-4.39,21.38-6.06,5.22-1.66,9.5-2.49,12.83-2.49,7.59,0,11.4,3.56,11.4,10.69s-2.74,16.63-8.19,28.5c-5.47,11.88-11.52,23.87-18.17,35.98-6.66,12.11-11.88,22.44-15.68,30.99-7.13,14.25-12.36,27.32-15.68,39.19-3.33,11.88-4.99,22.09-4.99,30.64,0,22.33,9.97,33.49,29.93,33.49,25.65,0,48.21-12.58,67.69-37.76,10.33-13.35,21.59-30.11,33.79-50.28-4.47,14.93-6.72,29.08-6.72,42.44s2.96,23.64,8.91,32.42c5.93,8.79,16.74,13.18,32.42,13.18,9.02,0,18.28-3.33,27.79-9.98,9.5-6.65,18.76-15.91,27.79-27.79,6.17,6.18,13.29,9.26,21.38,9.26,4.28,0,9.02-1.18,14.25-3.56,5.22-2.37,10.69-6.17,16.39-11.4,10.42-9.7,20.09-21.45,29.02-35.23,6.73-9.82,12.9-19.92,18.47-30.32,7.12-13.29,14.25-26.83,21.37-40.61,2.85-5.22,6.53-12.22,11.04-21.02,4.51-8.78,9.62-16.74,15.32-23.87,5.7-7.13,11.4-10.69,17.1-10.69,4.74,0,7.13,3.56,7.13,10.69,0,6.18-1.78,14.61-5.34,25.29s-7.73,21.62-12.47,32.78c-4.75,11.17-9.03,21.02-12.83,29.57-6.66,16.63-12.36,29.81-17.1,39.55-4.75,9.74-9.26,19.36-13.54,28.86-4.28,9.51-9.74,21.85-16.39,37.05,5.22-1.9,10.8-2.85,16.74-2.85s11.51-.95,16.75-2.85c5.22-1.89,9.26-6.41,12.11-13.54,2.85-7.59,7.36-18.64,13.54-33.13,6.17-14.48,13.54-30.04,22.09-46.67,8.55-16.62,17.57-32.53,27.08-47.74,9.5-15.2,19.12-27.67,28.86-37.41,9.73-9.73,19.12-14.61,28.14-14.61,6.65,0,9.98,3.1,9.98,9.26s-2.62,14.73-7.84,25.65c-5.23,10.93-11.04,21.98-17.46,33.13-6.41,11.17-11.52,20.79-15.32,28.86-7.12,14.25-12.36,27.32-15.67,39.19-3.33,11.88-4.99,22.09-4.99,30.64,0,22.33,9.98,33.49,29.93,33.49,17.1,0,32.65-5.58,46.67-16.74,14-11.16,28.02-27.79,42.04-49.88,14.01-22.09,29.57-49.75,46.67-83.01.94-.95.71-2.14-.71-3.56ZM27.79,258.64c-6.18-5.22-9.26-13.54-9.26-24.94,0-2.37.23-5.1.71-8.19.47-3.08,1.18-6.29,2.14-9.62,2.37-8.07,6.52-15.43,12.47-22.09,5.93-6.65,12.94-9.98,21.02-9.98.95,0,2.02.12,3.21.36,1.18.24,2.49.6,3.92,1.07.95-1.89.36-4.99-1.78-9.26-2.14-4.27-7.01-6.41-14.61-6.41-2.85,0-4.99.24-6.41.71l21.38-38.48c7.59-13.77,14.48-26.83,20.66-39.19,6.17-12.35,12.58-23.03,19.24-32.06,4.28-5.7,10.69-12.11,19.24-19.24,8.55-7.13,16.86-10.69,24.94-10.69,3.32,0,6.65.96,9.98,2.85-14.73,2.38-25.18,9.38-31.35,21.02-6.18,11.65-9.74,24.11-10.69,37.41-.48,8.55-.71,20.91-.71,37.05s-.6,33.38-1.78,51.66c-1.19,18.29-4.4,34.8-9.62,49.52-4.27,11.88-11.4,20.91-21.38,27.08-9.98,6.18-19.72,9.26-29.21,9.26-8.55,0-15.92-2.61-22.09-7.84ZM695.39,174.57c-1.9,4.75-3.1,9.39-3.56,13.89-.48,4.52-.71,8.67-.71,12.47,0,9.51,2.6,19,7.84,28.5-7.6,10.45-14.96,18.88-22.09,25.29-7.13,6.41-13.3,9.62-18.53,9.62-7.13,0-12.24-2.49-15.32-7.48-3.1-4.99-4.63-11.51-4.63-19.59,0-10.92,2.25-23.87,6.77-38.83,4.51-14.96,10.44-30.28,17.81-45.96,7.36-15.68,15.43-30.28,24.23-43.82,8.78-13.54,17.46-24.46,26.01-32.78,8.55-8.3,16.14-12.47,22.8-12.47,7.59,0,12.94,2.49,16.03,7.48,3.08,4.99,4.63,11.52,4.63,19.59,0,10.45-2.14,22.69-6.41,36.69-4.28,14.02-9.74,28.39-16.39,43.11,1.43-7.59.82-13.42-1.78-17.46-2.62-4.03-6.06-6.06-10.33-6.06-4.75,0-9.51,2.26-14.25,6.77-4.75,4.52-8.79,11.52-12.11,21.02Z"/>
  </g>
</svg>